<?xml version="1.0" encoding="UTF-8" standalone="no"?>
<!DOCTYPE svg PUBLIC "-//W3C//DTD SVG 1.1//EN"
 "http://www.w3.org/Graphics/SVG/1.1/DTD/svg11.dtd">
<!-- Generated by graphviz version 2.36.0 (20140111.2315)
 -->
<!-- Title: controllers_diagram Pages: 1 -->
<svg width="1457pt" height="867pt"
 viewBox="0.00 0.00 1457.00 866.78" xmlns="http://www.w3.org/2000/svg" xmlns:xlink="http://www.w3.org/1999/xlink">
<g id="graph0" class="graph" transform="scale(1 1) rotate(0) translate(4 862.78)">
<title>controllers_diagram</title>
<polygon fill="white" stroke="none" points="-4,4 -4,-862.78 1453,-862.78 1453,4 -4,4"/>
<!-- _diagram_info -->
<g id="node1" class="node"><title>_diagram_info</title>
<text text-anchor="start" x="1004" y="-58.6" font-family="Times,serif" font-size="13.00">Controllers diagram</text>
<text text-anchor="start" x="1004" y="-45.6" font-family="Times,serif" font-size="13.00">Date: Aug 07 2014 &#45; 12:32</text>
<text text-anchor="start" x="1004" y="-32.6" font-family="Times,serif" font-size="13.00">Migration version: 20140518174738</text>
<text text-anchor="start" x="1004" y="-19.6" font-family="Times,serif" font-size="13.00">Generated by RailRoady 1.1.1</text>
<text text-anchor="start" x="1004" y="-6.6" font-family="Times,serif" font-size="13.00">http://railroady.prestonlee.com</text>
</g>
<!-- AbogadosController -->
<g id="node2" class="node"><title>AbogadosController</title>
<ellipse fill="none" stroke="black" cx="89.9782" cy="-355.021" rx="82.1372" ry="18"/>
<text text-anchor="middle" x="89.9782" y="-350.821" font-family="Times,serif" font-size="14.00">AbogadosController</text>
</g>
<!-- ActividadEventosController -->
<g id="node3" class="node"><title>ActividadEventosController</title>
<ellipse fill="none" stroke="black" cx="1083.94" cy="-358.85" rx="109.641" ry="18"/>
<text text-anchor="middle" x="1083.94" y="-354.65" font-family="Times,serif" font-size="14.00">ActividadEventosController</text>
</g>
<!-- ActividadsController -->
<g id="node4" class="node"><title>ActividadsController</title>
<ellipse fill="none" stroke="black" cx="499.974" cy="-101" rx="84.5427" ry="18"/>
<text text-anchor="middle" x="499.974" y="-96.8" font-family="Times,serif" font-size="14.00">ActividadsController</text>
</g>
<!-- AgendasController -->
<g id="node5" class="node"><title>AgendasController</title>
<ellipse fill="none" stroke="black" cx="618.264" cy="-840.78" rx="77.3003" ry="18"/>
<text text-anchor="middle" x="618.264" y="-836.58" font-family="Times,serif" font-size="14.00">AgendasController</text>
</g>
<!-- AlertasController -->
<g id="node6" class="node"><title>AlertasController</title>
<ellipse fill="none" stroke="black" cx="1062.04" cy="-574.994" rx="71.9876" ry="18"/>
<text text-anchor="middle" x="1062.04" y="-570.794" font-family="Times,serif" font-size="14.00">AlertasController</text>
</g>
<!-- ApplicationController -->
<g id="node7" class="node"><title>ApplicationController</title>
<ellipse fill="none" stroke="black" cx="650.255" cy="-450.519" rx="88.417" ry="18"/>
<text text-anchor="middle" x="650.255" y="-446.319" font-family="Times,serif" font-size="14.00">ApplicationController</text>
</g>
<!-- ApplicationController&#45;&gt;AbogadosController -->
<g id="edge1" class="edge"><title>ApplicationController&#45;&gt;AbogadosController</title>
<path fill="none" stroke="black" d="M582.394,-438.952C473.724,-420.429 262.047,-384.35 155.123,-366.125"/>
</g>
<!-- ApplicationController&#45;&gt;ActividadEventosController -->
<g id="edge2" class="edge"><title>ApplicationController&#45;&gt;ActividadEventosController</title>
<path fill="none" stroke="black" d="M711.931,-437.482C792.493,-420.453 933.062,-390.741 1016.41,-373.123"/>
</g>
<!-- ApplicationController&#45;&gt;ActividadsController -->
<g id="edge3" class="edge"><title>ApplicationController&#45;&gt;ActividadsController</title>
<path fill="none" stroke="black" d="M635.951,-432.583C613.602,-403.709 570.443,-344.398 546.073,-287.647 520.787,-228.762 507.499,-153.215 502.436,-119.123"/>
</g>
<!-- ApplicationController&#45;&gt;AgendasController -->
<g id="edge4" class="edge"><title>ApplicationController&#45;&gt;AgendasController</title>
<path fill="none" stroke="black" d="M669.38,-468.491C698.191,-497.623 749.353,-558.272 748.946,-621.272 748.392,-707.09 674.014,-788.586 637.73,-823.263"/>
</g>
<!-- ApplicationController&#45;&gt;AlertasController -->
<g id="edge5" class="edge"><title>ApplicationController&#45;&gt;AlertasController</title>
<path fill="none" stroke="black" d="M699.926,-465.533C780.356,-489.846 937.945,-537.482 1015.99,-561.073"/>
</g>
<!-- ContrasenaResetsController -->
<g id="node8" class="node"><title>ContrasenaResetsController</title>
<ellipse fill="none" stroke="black" cx="142.379" cy="-112.114" rx="109.156" ry="18"/>
<text text-anchor="middle" x="142.379" y="-107.914" font-family="Times,serif" font-size="14.00">ContrasenaResetsController</text>
</g>
<!-- ApplicationController&#45;&gt;ContrasenaResetsController -->
<g id="edge6" class="edge"><title>ApplicationController&#45;&gt;ContrasenaResetsController</title>
<path fill="none" stroke="black" d="M633.943,-432.435C610.576,-407.157 565.508,-360.68 521.384,-327.891 404.243,-240.843 248.64,-162.552 178.902,-129.179"/>
</g>
<!-- ContratosController -->
<g id="node9" class="node"><title>ContratosController</title>
<ellipse fill="none" stroke="black" cx="1355.48" cy="-150.406" rx="80.6921" ry="18"/>
<text text-anchor="middle" x="1355.48" y="-146.206" font-family="Times,serif" font-size="14.00">ContratosController</text>
</g>
<!-- ApplicationController&#45;&gt;ContratosController -->
<g id="edge7" class="edge"><title>ApplicationController&#45;&gt;ContratosController</title>
<path fill="none" stroke="black" d="M709.555,-437.144C766.27,-423.568 853.733,-400.569 926.831,-372.408 1085.19,-311.398 1261.23,-208 1327.89,-167.447"/>
</g>
<!-- ControlAccesosController -->
<g id="node10" class="node"><title>ControlAccesosController</title>
<ellipse fill="none" stroke="black" cx="416.839" cy="-327.817" rx="102.892" ry="18"/>
<text text-anchor="middle" x="416.839" y="-323.617" font-family="Times,serif" font-size="14.00">ControlAccesosController</text>
</g>
<!-- ApplicationController&#45;&gt;ControlAccesosController -->
<g id="edge8" class="edge"><title>ApplicationController&#45;&gt;ControlAccesosController</title>
<path fill="none" stroke="black" d="M618.289,-433.715C573.965,-410.414 494.259,-368.515 449.545,-345.01"/>
</g>
<!-- DocumentsController -->
<g id="node11" class="node"><title>DocumentsController</title>
<ellipse fill="none" stroke="black" cx="774.661" cy="-106.201" rx="86.9722" ry="18"/>
<text text-anchor="middle" x="774.661" y="-102.001" font-family="Times,serif" font-size="14.00">DocumentsController</text>
</g>
<!-- ApplicationController&#45;&gt;DocumentsController -->
<g id="edge9" class="edge"><title>ApplicationController&#45;&gt;DocumentsController</title>
<path fill="none" stroke="black" d="M668.697,-432.587C696.037,-404.631 746.312,-347.633 766.951,-287.834 786.619,-230.849 781.23,-157.789 777.226,-124.362"/>
</g>
<!-- EstadoActividadsController -->
<g id="node12" class="node"><title>EstadoActividadsController</title>
<ellipse fill="none" stroke="black" cx="656.512" cy="-287.741" rx="108.681" ry="18"/>
<text text-anchor="middle" x="656.512" y="-283.541" font-family="Times,serif" font-size="14.00">EstadoActividadsController</text>
</g>
<!-- ApplicationController&#45;&gt;EstadoActividadsController -->
<g id="edge10" class="edge"><title>ApplicationController&#45;&gt;EstadoActividadsController</title>
<path fill="none" stroke="black" d="M650.949,-432.476C652.151,-401.187 654.611,-337.209 655.816,-305.863"/>
</g>
<!-- EstadosController -->
<g id="node13" class="node"><title>EstadosController</title>
<ellipse fill="none" stroke="black" cx="125.661" cy="-568.193" rx="73.9344" ry="18"/>
<text text-anchor="middle" x="125.661" y="-563.993" font-family="Times,serif" font-size="14.00">EstadosController</text>
</g>
<!-- ApplicationController&#45;&gt;EstadosController -->
<g id="edge11" class="edge"><title>ApplicationController&#45;&gt;EstadosController</title>
<path fill="none" stroke="black" d="M590.843,-463.846C488.236,-486.862 279.314,-533.726 180.192,-555.961"/>
</g>
<!-- EventosController -->
<g id="node14" class="node"><title>EventosController</title>
<ellipse fill="none" stroke="black" cx="1374.06" cy="-472.321" rx="74.8948" ry="18"/>
<text text-anchor="middle" x="1374.06" y="-468.121" font-family="Times,serif" font-size="14.00">EventosController</text>
</g>
<!-- ApplicationController&#45;&gt;EventosController -->
<g id="edge12" class="edge"><title>ApplicationController&#45;&gt;EventosController</title>
<path fill="none" stroke="black" d="M737.562,-453.148C881.192,-457.475 1164.81,-466.018 1299.57,-470.077"/>
</g>
<!-- HomeController -->
<g id="node15" class="node"><title>HomeController</title>
<ellipse fill="none" stroke="black" cx="1355.52" cy="-787.893" rx="68.1374" ry="18"/>
<text text-anchor="middle" x="1355.52" y="-783.693" font-family="Times,serif" font-size="14.00">HomeController</text>
</g>
<!-- ApplicationController&#45;&gt;HomeController -->
<g id="edge13" class="edge"><title>ApplicationController&#45;&gt;HomeController</title>
<path fill="none" stroke="black" d="M692.477,-466.518C743.703,-486.191 832.472,-521.116 907.033,-554.732 1069.44,-627.95 1256.29,-731.66 1326.7,-771.464"/>
</g>
<!-- LogsController -->
<g id="node16" class="node"><title>LogsController</title>
<ellipse fill="none" stroke="black" cx="816.504" cy="-810.076" rx="64.2873" ry="18"/>
<text text-anchor="middle" x="816.504" y="-805.876" font-family="Times,serif" font-size="14.00">LogsController</text>
</g>
<!-- ApplicationController&#45;&gt;LogsController -->
<g id="edge14" class="edge"><title>ApplicationController&#45;&gt;LogsController</title>
<path fill="none" stroke="black" d="M662.033,-468.384C681.777,-498.843 722.031,-563.175 748.946,-621.272 777.044,-681.922 800.996,-757.799 811.216,-791.947"/>
</g>
<!-- ParticipantesController -->
<g id="node17" class="node"><title>ParticipantesController</title>
<ellipse fill="none" stroke="black" cx="860.982" cy="-358.459" rx="92.267" ry="18"/>
<text text-anchor="middle" x="860.982" y="-354.259" font-family="Times,serif" font-size="14.00">ParticipantesController</text>
</g>
<!-- ApplicationController&#45;&gt;ParticipantesController -->
<g id="edge15" class="edge"><title>ApplicationController&#45;&gt;ParticipantesController</title>
<path fill="none" stroke="black" d="M687.929,-434.06C726.167,-417.355 785.032,-391.639 823.28,-374.93"/>
</g>
<!-- ProcesosController -->
<g id="node18" class="node"><title>ProcesosController</title>
<ellipse fill="none" stroke="black" cx="1023.33" cy="-116.303" rx="77.7934" ry="18"/>
<text text-anchor="middle" x="1023.33" y="-112.103" font-family="Times,serif" font-size="14.00">ProcesosController</text>
</g>
<!-- ApplicationController&#45;&gt;ProcesosController -->
<g id="edge16" class="edge"><title>ApplicationController&#45;&gt;ProcesosController</title>
<path fill="none" stroke="black" d="M670.05,-432.786C734.675,-374.892 939.026,-191.825 1003.58,-133.993"/>
</g>
<!-- ReportesController -->
<g id="node19" class="node"><title>ReportesController</title>
<ellipse fill="none" stroke="black" cx="407.021" cy="-795.059" rx="77.7848" ry="18"/>
<text text-anchor="middle" x="407.021" y="-790.859" font-family="Times,serif" font-size="14.00">ReportesController</text>
</g>
<!-- ApplicationController&#45;&gt;ReportesController -->
<g id="edge17" class="edge"><title>ApplicationController&#45;&gt;ReportesController</title>
<path fill="none" stroke="black" d="M635.294,-468.52C610.03,-499.178 557.712,-563.793 517.262,-621.237 478.275,-676.605 436.6,-745.248 417.58,-777.174"/>
</g>
<!-- RolParticipantesController -->
<g id="node20" class="node"><title>RolParticipantesController</title>
<ellipse fill="none" stroke="black" cx="104.911" cy="-812.842" rx="104.821" ry="18"/>
<text text-anchor="middle" x="104.911" y="-808.642" font-family="Times,serif" font-size="14.00">RolParticipantesController</text>
</g>
<!-- ApplicationController&#45;&gt;RolParticipantesController -->
<g id="edge18" class="edge"><title>ApplicationController&#45;&gt;RolParticipantesController</title>
<path fill="none" stroke="black" d="M626.936,-467.967C603.251,-485.557 565.393,-513.315 531.908,-536.267 383.836,-637.763 201.729,-752.433 132.968,-795.381"/>
</g>
<!-- SoftwareAbogadosController -->
<g id="node21" class="node"><title>SoftwareAbogadosController</title>
<ellipse fill="none" stroke="black" cx="633.104" cy="-621.255" rx="114.485" ry="18"/>
<text text-anchor="middle" x="633.104" y="-617.055" font-family="Times,serif" font-size="14.00">SoftwareAbogadosController</text>
</g>
<!-- ApplicationController&#45;&gt;SoftwareAbogadosController -->
<g id="edge19" class="edge"><title>ApplicationController&#45;&gt;SoftwareAbogadosController</title>
<path fill="none" stroke="black" d="M648.42,-468.79C645.119,-501.652 638.218,-570.348 634.927,-603.114"/>
</g>
<!-- TipoProcesosController -->
<g id="node22" class="node"><title>TipoProcesosController</title>
<ellipse fill="none" stroke="black" cx="839.037" cy="-568.552" rx="94.0854" ry="18"/>
<text text-anchor="middle" x="839.037" y="-564.352" font-family="Times,serif" font-size="14.00">TipoProcesosController</text>
</g>
<!-- ApplicationController&#45;&gt;TipoProcesosController -->
<g id="edge20" class="edge"><title>ApplicationController&#45;&gt;TipoProcesosController</title>
<path fill="none" stroke="black" d="M677.706,-467.682C713.395,-489.996 775.39,-528.757 811.246,-551.176"/>
</g>
<!-- UsuarioSessionsController -->
<g id="node23" class="node"><title>UsuarioSessionsController</title>
<ellipse fill="none" stroke="black" cx="425.387" cy="-536.129" rx="104.847" ry="18"/>
<text text-anchor="middle" x="425.387" y="-531.929" font-family="Times,serif" font-size="14.00">UsuarioSessionsController</text>
</g>
<!-- ApplicationController&#45;&gt;UsuarioSessionsController -->
<g id="edge21" class="edge"><title>ApplicationController&#45;&gt;UsuarioSessionsController</title>
<path fill="none" stroke="black" d="M608.486,-466.421C568.731,-481.556 509.155,-504.237 468.849,-519.582"/>
</g>
<!-- UsuariosController -->
<g id="node24" class="node"><title>UsuariosController</title>
<ellipse fill="none" stroke="black" cx="1036.34" cy="-821.282" rx="77.7934" ry="18"/>
<text text-anchor="middle" x="1036.34" y="-817.082" font-family="Times,serif" font-size="14.00">UsuariosController</text>
</g>
<!-- ApplicationController&#45;&gt;UsuariosController -->
<g id="edge22" class="edge"><title>ApplicationController&#45;&gt;UsuariosController</title>
<path fill="none" stroke="black" d="M662.798,-468.576C679.783,-492.502 711.613,-535.528 743.145,-568.497 835.819,-665.394 962.108,-764.785 1013.34,-803.937"/>
</g>
</g>
</svg>
