<?xml version="1.0" encoding="UTF-8" standalone="no"?>
<!DOCTYPE svg PUBLIC "-//W3C//DTD SVG 1.1//EN"
 "http://www.w3.org/Graphics/SVG/1.1/DTD/svg11.dtd">
<!-- Generated by graphviz version 2.36.0 (20140111.2315)
 -->
<!-- Title: models_diagram Pages: 1 -->
<svg width="1970pt" height="714pt"
 viewBox="0.00 0.00 1970.08 714.00" xmlns="http://www.w3.org/2000/svg" xmlns:xlink="http://www.w3.org/1999/xlink">
<g id="graph0" class="graph" transform="scale(1 1) rotate(0) translate(4 710)">
<title>models_diagram</title>
<polygon fill="white" stroke="none" points="-4,4 -4,-710 1966.08,-710 1966.08,4 -4,4"/>
<!-- _diagram_info -->
<g id="node1" class="node"><title>_diagram_info</title>
<text text-anchor="start" x="662.396" y="-691.1" font-family="Times,serif" font-size="13.00">Models diagram</text>
<text text-anchor="start" x="662.396" y="-678.1" font-family="Times,serif" font-size="13.00">Date: Aug 07 2014 &#45; 12:32</text>
<text text-anchor="start" x="662.396" y="-665.1" font-family="Times,serif" font-size="13.00">Migration version: 20140518174738</text>
<text text-anchor="start" x="662.396" y="-652.1" font-family="Times,serif" font-size="13.00">Generated by RailRoady 1.1.1</text>
<text text-anchor="start" x="662.396" y="-639.1" font-family="Times,serif" font-size="13.00">http://railroady.prestonlee.com</text>
</g>
<!-- Abogado -->
<g id="node2" class="node"><title>Abogado</title>
<ellipse fill="none" stroke="black" cx="863.084" cy="-576" rx="42.2905" ry="18"/>
<text text-anchor="middle" x="863.084" y="-571.8" font-family="Times,serif" font-size="14.00">Abogado</text>
</g>
<!-- Actividad -->
<g id="node3" class="node"><title>Actividad</title>
<ellipse fill="none" stroke="black" cx="1231.08" cy="-92" rx="44.4699" ry="18"/>
<text text-anchor="middle" x="1231.08" y="-87.8" font-family="Times,serif" font-size="14.00">Actividad</text>
</g>
<!-- Abogado&#45;&gt;Actividad -->
<g id="edge8" class="edge"><title>Abogado&#45;&gt;Actividad</title>
<path fill="none" stroke="#542a41" d="M913.133,-568.396C1004.5,-553.342 1196.42,-507.169 1278.08,-378 1330.69,-294.803 1274.99,-171.641 1246.15,-118.708"/>
<polygon fill="#542a41" stroke="#542a41" points="912.906,-568.432 902.323,-565.557 907.967,-569.217 903.029,-570.001 903.029,-570.001 903.029,-570.001 907.967,-569.217 903.735,-574.446 912.906,-568.432 912.906,-568.432"/>
<polygon fill="#542a41" stroke="#542a41" points="1245.98,-118.401 1245.04,-107.475 1243.54,-114.034 1241.11,-109.667 1241.11,-109.667 1241.11,-109.667 1243.54,-114.034 1237.18,-111.858 1245.98,-118.401 1245.98,-118.401"/>
</g>
<!-- Alerta -->
<g id="node6" class="node"><title>Alerta</title>
<ellipse fill="none" stroke="black" cx="583.084" cy="-178" rx="32.3044" ry="18"/>
<text text-anchor="middle" x="583.084" y="-173.8" font-family="Times,serif" font-size="14.00">Alerta</text>
</g>
<!-- Abogado&#45;&gt;Alerta -->
<g id="edge7" class="edge"><title>Abogado&#45;&gt;Alerta</title>
<path fill="none" stroke="#400146" d="M824.043,-558.861C814.007,-553.688 803.638,-547.358 795.084,-540 772.639,-520.695 772.481,-510.649 756.084,-486 693.768,-392.327 676.628,-369.483 624.084,-270 612.765,-248.57 601.576,-223.394 593.753,-204.961"/>
<polygon fill="#400146" stroke="#400146" points="824.117,-558.898 831.13,-567.328 828.611,-561.091 833.104,-563.284 833.104,-563.284 833.104,-563.284 828.611,-561.091 835.078,-559.24 824.117,-558.898 824.117,-558.898"/>
<polygon fill="#400146" stroke="#400146" points="593.752,-204.958 594.03,-193.995 591.816,-200.348 589.881,-195.737 589.881,-195.737 589.881,-195.737 591.816,-200.348 585.732,-197.479 593.752,-204.958 593.752,-204.958"/>
</g>
<!-- ControlAcceso -->
<g id="node10" class="node"><title>ControlAcceso</title>
<ellipse fill="none" stroke="black" cx="1187.08" cy="-178" rx="63.2322" ry="18"/>
<text text-anchor="middle" x="1187.08" y="-173.8" font-family="Times,serif" font-size="14.00">ControlAcceso</text>
</g>
<!-- Abogado&#45;&gt;ControlAcceso -->
<g id="edge1" class="edge"><title>Abogado&#45;&gt;ControlAcceso</title>
<path fill="none" stroke="#80b775" d="M881.26,-552.373C884.54,-548.263 887.921,-544.009 891.084,-540 903.637,-524.086 906.412,-519.821 919.084,-504 1009.78,-390.758 1120.85,-257.852 1166.25,-203.767"/>
<ellipse fill="none" stroke="#80b775" cx="878.734" cy="-555.532" rx="4.00002" ry="4.00002"/>
<polygon fill="#80b775" stroke="#80b775" points="1166.53,-203.436 1176.41,-198.672 1169.75,-199.607 1172.96,-195.778 1172.96,-195.778 1172.96,-195.778 1169.75,-199.607 1169.52,-192.884 1166.53,-203.436 1166.53,-203.436"/>
</g>
<!-- Document -->
<g id="node11" class="node"><title>Document</title>
<ellipse fill="none" stroke="black" cx="937.084" cy="-178" rx="46.4174" ry="18"/>
<text text-anchor="middle" x="937.084" y="-173.8" font-family="Times,serif" font-size="14.00">Document</text>
</g>
<!-- Abogado&#45;&gt;Document -->
<g id="edge3" class="edge"><title>Abogado&#45;&gt;Document</title>
<path fill="none" stroke="#8e3218" d="M861.968,-549.658C862.153,-535.78 863.708,-518.505 869.084,-504 872.513,-494.747 877.164,-494.555 882.084,-486 908.268,-440.464 918.278,-429.183 930.084,-378 943.909,-318.062 941.897,-245.306 939.385,-206.508"/>
<ellipse fill="none" stroke="#8e3218" cx="861.988" cy="-553.805" rx="4" ry="4"/>
<polygon fill="#8e3218" stroke="#8e3218" points="939.351,-206.03 943.129,-195.736 938.996,-201.043 938.641,-196.056 938.641,-196.056 938.641,-196.056 938.996,-201.043 934.152,-196.375 939.351,-206.03 939.351,-206.03"/>
</g>
<!-- Evento -->
<g id="node17" class="node"><title>Evento</title>
<ellipse fill="none" stroke="black" cx="537.084" cy="-92" rx="35.2345" ry="18"/>
<text text-anchor="middle" x="537.084" y="-87.8" font-family="Times,serif" font-size="14.00">Evento</text>
</g>
<!-- Abogado&#45;&gt;Evento -->
<g id="edge5" class="edge"><title>Abogado&#45;&gt;Evento</title>
<path fill="none" stroke="#c85e26" d="M821.745,-560.402C779.35,-545.594 711.403,-522.309 652.084,-504 623.85,-495.285 611.835,-503.578 588.084,-486 471.77,-399.918 463.93,-338.725 440.084,-196 437.447,-180.219 432.65,-174.168 440.084,-160 452.813,-135.736 478.756,-118.527 500.611,-107.63"/>
<polygon fill="#c85e26" stroke="#c85e26" points="821.993,-560.489 829.944,-568.041 826.712,-562.141 831.431,-563.793 831.431,-563.793 831.431,-563.793 826.712,-562.141 832.918,-559.546 821.993,-560.489 821.993,-560.489"/>
<polygon fill="#c85e26" stroke="#c85e26" points="500.637,-107.618 511.6,-107.412 505.157,-105.481 509.677,-103.344 509.677,-103.344 509.677,-103.344 505.157,-105.481 507.754,-99.2753 500.637,-107.618 500.637,-107.618"/>
</g>
<!-- Participante -->
<g id="node19" class="node"><title>Participante</title>
<ellipse fill="none" stroke="black" cx="1054.08" cy="-178" rx="52.0142" ry="18"/>
<text text-anchor="middle" x="1054.08" y="-173.8" font-family="Times,serif" font-size="14.00">Participante</text>
</g>
<!-- Abogado&#45;&gt;Participante -->
<g id="edge9" class="edge"><title>Abogado&#45;&gt;Participante</title>
<path fill="none" stroke="#3a5064" d="M872.945,-548.825C878.491,-535.131 885.93,-518.288 894.084,-504 898.975,-495.429 901.971,-494.441 907.084,-486 967.048,-386.993 1021.31,-259.764 1043.49,-205.464"/>
<polygon fill="#3a5064" stroke="#3a5064" points="872.932,-548.858 865.073,-556.506 871.095,-553.508 869.258,-558.159 869.258,-558.159 869.258,-558.159 871.095,-553.508 873.444,-559.812 872.932,-548.858 872.932,-548.858"/>
<polygon fill="#3a5064" stroke="#3a5064" points="1043.61,-205.167 1051.54,-197.593 1045.49,-200.534 1047.37,-195.901 1047.37,-195.901 1047.37,-195.901 1045.49,-200.534 1043.2,-194.208 1043.61,-205.167 1043.61,-205.167"/>
</g>
<!-- Proceso -->
<g id="node21" class="node"><title>Proceso</title>
<ellipse fill="none" stroke="black" cx="671.084" cy="-252" rx="38.1582" ry="18"/>
<text text-anchor="middle" x="671.084" y="-247.8" font-family="Times,serif" font-size="14.00">Proceso</text>
</g>
<!-- Abogado&#45;&gt;Proceso -->
<g id="edge2" class="edge"><title>Abogado&#45;&gt;Proceso</title>
<path fill="none" stroke="#5f370a" d="M838.125,-552.138C834.279,-548.224 830.467,-544.095 827.084,-540 755.423,-453.267 740.965,-426.726 695.084,-324 688.699,-309.705 683.014,-293.162 678.781,-279.642"/>
<polygon fill="#5f370a" stroke="#5f370a" points="838.321,-552.33 842.304,-562.547 841.889,-555.833 845.457,-559.336 845.457,-559.336 845.457,-559.336 841.889,-555.833 848.609,-556.124 838.321,-552.33 838.321,-552.33"/>
<polygon fill="#5f370a" stroke="#5f370a" points="678.752,-279.547 680.145,-268.67 677.296,-274.764 675.84,-269.981 675.84,-269.981 675.84,-269.981 677.296,-274.764 671.535,-271.291 678.752,-279.547 678.752,-279.547"/>
</g>
<!-- Usuario -->
<g id="node28" class="node"><title>Usuario</title>
<ellipse fill="none" stroke="black" cx="813.084" cy="-360" rx="38.1582" ry="18"/>
<text text-anchor="middle" x="813.084" y="-355.8" font-family="Times,serif" font-size="14.00">Usuario</text>
</g>
<!-- Abogado&#45;&gt;Usuario -->
<g id="edge6" class="edge"><title>Abogado&#45;&gt;Usuario</title>
<path fill="none" stroke="#f4ebc4" d="M846.633,-551.669C844.503,-547.895 842.555,-543.932 841.084,-540 821.848,-488.609 815.826,-424.135 813.941,-388.274"/>
<ellipse fill="none" stroke="#f4ebc4" cx="848.795" cy="-555.219" rx="4.00002" ry="4.00002"/>
<polygon fill="#f4ebc4" stroke="#f4ebc4" points="813.934,-388.099 817.975,-377.905 813.706,-383.104 813.479,-378.109 813.479,-378.109 813.479,-378.109 813.706,-383.104 808.984,-378.314 813.934,-388.099 813.934,-388.099"/>
<text text-anchor="middle" x="852.522" y="-463.8" font-family="Times,serif" font-size="14.00">abogados</text>
</g>
<!-- UsuarioEvento -->
<g id="node29" class="node"><title>UsuarioEvento</title>
<ellipse fill="none" stroke="black" cx="537.084" cy="-18" rx="63.2322" ry="18"/>
<text text-anchor="middle" x="537.084" y="-13.8" font-family="Times,serif" font-size="14.00">UsuarioEvento</text>
</g>
<!-- Abogado&#45;&gt;UsuarioEvento -->
<g id="edge4" class="edge"><title>Abogado&#45;&gt;UsuarioEvento</title>
<path fill="none" stroke="#e0225c" d="M815.11,-568.82C787.856,-565.408 753.088,-561.223 722.084,-558 676.378,-553.249 555.69,-563.301 516.084,-540 478.632,-517.967 297.084,-259.452 297.084,-216 297.084,-216 297.084,-216 297.084,-91 297.084,-54.9798 397.518,-35.432 468.445,-26.1184"/>
<ellipse fill="none" stroke="#e0225c" cx="819.345" cy="-569.353" rx="4.00001" ry="4.00001"/>
<polygon fill="#e0225c" stroke="#e0225c" points="468.76,-26.0785 479.247,-29.2819 473.72,-25.4481 478.68,-24.8178 478.68,-24.8178 478.68,-24.8178 473.72,-25.4481 478.113,-20.3537 468.76,-26.0785 468.76,-26.0785"/>
</g>
<!-- ActividadEvento -->
<g id="node4" class="node"><title>ActividadEvento</title>
<ellipse fill="none" stroke="black" cx="155.084" cy="-576" rx="70.0436" ry="18"/>
<text text-anchor="middle" x="155.084" y="-571.8" font-family="Times,serif" font-size="14.00">ActividadEvento</text>
</g>
<!-- Agenda -->
<g id="node5" class="node"><title>Agenda</title>
<ellipse fill="none" stroke="black" cx="281.084" cy="-576" rx="37.4126" ry="18"/>
<text text-anchor="middle" x="281.084" y="-571.8" font-family="Times,serif" font-size="14.00">Agenda</text>
</g>
<!-- Alerta&#45;&gt;Evento -->
<g id="edge14" class="edge"><title>Alerta&#45;&gt;Evento</title>
<path fill="none" stroke="#9271c7" d="M578.301,-151.942C576.168,-143.977 573.183,-135.338 569.084,-128 566.386,-123.171 562.9,-118.466 559.225,-114.152"/>
<ellipse fill="none" stroke="#9271c7" cx="579.287" cy="-156.027" rx="4.00001" ry="4.00001"/>
<ellipse fill="#9271c7" stroke="#9271c7" cx="556.464" cy="-111.107" rx="4.00002" ry="4.00002"/>
</g>
<!-- Brand -->
<g id="node7" class="node"><title>Brand</title>
<ellipse fill="none" stroke="black" cx="407.084" cy="-576" rx="31.5774" ry="18"/>
<text text-anchor="middle" x="407.084" y="-571.8" font-family="Times,serif" font-size="14.00">Brand</text>
</g>
<!-- Cliente -->
<g id="node8" class="node"><title>Cliente</title>
<ellipse fill="none" stroke="black" cx="492.084" cy="-576" rx="35.4718" ry="18"/>
<text text-anchor="middle" x="492.084" y="-571.8" font-family="Times,serif" font-size="14.00">Cliente</text>
</g>
<!-- Contrato -->
<g id="node9" class="node"><title>Contrato</title>
<ellipse fill="none" stroke="black" cx="490.084" cy="-178" rx="41.082" ry="18"/>
<text text-anchor="middle" x="490.084" y="-173.8" font-family="Times,serif" font-size="14.00">Contrato</text>
</g>
<!-- Estado -->
<g id="node12" class="node"><title>Estado</title>
<ellipse fill="none" stroke="black" cx="359.084" cy="-178" rx="34.2643" ry="18"/>
<text text-anchor="middle" x="359.084" y="-173.8" font-family="Times,serif" font-size="14.00">Estado</text>
</g>
<!-- EstadoActividad -->
<g id="node13" class="node"><title>EstadoActividad</title>
<ellipse fill="none" stroke="black" cx="1878.08" cy="-522" rx="69.0733" ry="18"/>
<text text-anchor="middle" x="1878.08" y="-517.8" font-family="Times,serif" font-size="14.00">EstadoActividad</text>
</g>
<!-- EstadoActividad&#45;&gt;Actividad -->
<g id="edge22" class="edge"><title>EstadoActividad&#45;&gt;Actividad</title>
<path fill="none" stroke="#29802b" d="M1869.53,-496.091C1862.99,-474.817 1855.08,-443.261 1855.08,-415 1855.08,-415 1855.08,-415 1855.08,-177 1855.08,-146.824 1835.47,-140.673 1808.08,-128 1761.48,-106.435 1420.59,-96.9805 1285.76,-94.0562"/>
<ellipse fill="none" stroke="#29802b" cx="1870.83" cy="-500.176" rx="4.00001" ry="4.00001"/>
<polygon fill="#29802b" stroke="#29802b" points="1285.64,-94.0539 1275.74,-89.3418 1280.65,-93.9473 1275.65,-93.8408 1275.65,-93.8408 1275.65,-93.8408 1280.65,-93.9473 1275.55,-98.3398 1285.64,-94.0539 1285.64,-94.0539"/>
</g>
<!-- EstadoProceso -->
<g id="node14" class="node"><title>EstadoProceso</title>
<ellipse fill="none" stroke="black" cx="581.084" cy="-522" rx="62.2619" ry="18"/>
<text text-anchor="middle" x="581.084" y="-517.8" font-family="Times,serif" font-size="14.00">EstadoProceso</text>
</g>
<!-- EstadoProceso&#45;&gt;Proceso -->
<g id="edge24" class="edge"><title>EstadoProceso&#45;&gt;Proceso</title>
<path fill="none" stroke="#4baea6" d="M581.73,-495.783C582.539,-482.071 584.299,-464.913 588.084,-450 604.382,-385.772 638.319,-315.309 657.363,-278.55"/>
<ellipse fill="none" stroke="#4baea6" cx="581.534" cy="-499.829" rx="4" ry="4"/>
<polygon fill="#4baea6" stroke="#4baea6" points="657.447,-278.389 666.075,-271.62 659.768,-273.96 662.089,-269.532 662.089,-269.532 662.089,-269.532 659.768,-273.96 658.103,-267.443 657.447,-278.389 657.447,-278.389"/>
</g>
<!-- Event -->
<g id="node15" class="node"><title>Event</title>
<ellipse fill="none" stroke="black" cx="396.084" cy="-468" rx="30.6005" ry="18"/>
<text text-anchor="middle" x="396.084" y="-463.8" font-family="Times,serif" font-size="14.00">Event</text>
</g>
<!-- Event&#45;&gt;Usuario -->
<g id="edge27" class="edge"><title>Event&#45;&gt;Usuario</title>
<path fill="none" stroke="#8eac39" d="M433.165,-457.574C510.51,-437.913 688.643,-392.632 770.515,-371.821"/>
<polygon fill="#8eac39" stroke="#8eac39" points="433.136,-457.581 422.335,-455.684 428.29,-458.813 423.444,-460.045 423.444,-460.045 423.444,-460.045 428.29,-458.813 424.553,-464.406 433.136,-457.581 433.136,-457.581"/>
<polygon fill="#8eac39" stroke="#8eac39" points="770.551,-371.812 781.351,-373.709 775.397,-370.58 780.243,-369.348 780.243,-369.348 780.243,-369.348 775.397,-370.58 779.134,-364.987 770.551,-371.812 770.551,-371.812"/>
</g>
<!-- Event&#45;&gt;UsuarioEvento -->
<g id="edge26" class="edge"><title>Event&#45;&gt;UsuarioEvento</title>
<path fill="none" stroke="#cbef84" d="M358.865,-461.405C307.483,-451.331 221.084,-424.894 221.084,-361 221.084,-361 221.084,-361 221.084,-91 221.084,-41.3758 371.102,-25.9539 464.409,-21.1611"/>
<ellipse fill="none" stroke="#cbef84" cx="362.86" cy="-462.15" rx="4.00001" ry="4.00001"/>
<polygon fill="#cbef84" stroke="#cbef84" points="464.664,-21.1488 474.87,-25.1604 469.658,-20.9072 474.652,-20.6657 474.652,-20.6657 474.652,-20.6657 469.658,-20.9072 474.435,-16.1709 464.664,-21.1488 464.664,-21.1488"/>
</g>
<!-- EventSeries -->
<g id="node16" class="node"><title>EventSeries</title>
<ellipse fill="none" stroke="black" cx="598.084" cy="-576" rx="52.0206" ry="18"/>
<text text-anchor="middle" x="598.084" y="-571.8" font-family="Times,serif" font-size="14.00">EventSeries</text>
</g>
<!-- EventSeries&#45;&gt;Event -->
<g id="edge29" class="edge"><title>EventSeries&#45;&gt;Event</title>
<path fill="none" stroke="#b02547" d="M551.453,-561.753C546.283,-560.422 541.082,-559.142 536.084,-558 492.912,-548.136 474.403,-565.337 438.084,-540 422.667,-529.245 412.019,-510.855 405.301,-495.487"/>
<ellipse fill="none" stroke="#b02547" cx="555.649" cy="-562.856" rx="4.00001" ry="4.00001"/>
<polygon fill="#b02547" stroke="#b02547" points="405.188,-495.206 405.617,-484.249 403.316,-490.57 401.444,-485.934 401.444,-485.934 401.444,-485.934 403.316,-490.57 397.272,-487.619 405.188,-495.206 405.188,-495.206"/>
</g>
<!-- Evento&#45;&gt;Alerta -->
<g id="edge32" class="edge"><title>Evento&#45;&gt;Alerta</title>
<path fill="none" stroke="#224688" d="M530.559,-118.223C529.761,-126.198 530.292,-134.801 534.001,-142 538.074,-149.907 544.852,-156.421 552.09,-161.596"/>
<ellipse fill="none" stroke="#224688" cx="531.184" cy="-114.179" rx="4.00001" ry="4.00001"/>
<ellipse fill="#224688" stroke="#224688" cx="555.451" cy="-163.789" rx="4.00002" ry="4.00002"/>
<text text-anchor="middle" x="549.625" y="-130.8" font-family="Times,serif" font-size="14.00">alerta</text>
</g>
<!-- Evento&#45;&gt;UsuarioEvento -->
<g id="edge31" class="edge"><title>Evento&#45;&gt;UsuarioEvento</title>
<path fill="none" stroke="#219e11" d="M537.084,-65.7923C537.084,-59.5805 537.084,-52.8963 537.084,-46.5786"/>
<ellipse fill="none" stroke="#219e11" cx="537.084" cy="-69.937" rx="4" ry="4"/>
<polygon fill="#219e11" stroke="#219e11" points="537.084,-46.4407 541.584,-36.4406 537.084,-41.4407 537.084,-36.4407 537.084,-36.4407 537.084,-36.4407 537.084,-41.4407 532.584,-36.4407 537.084,-46.4407 537.084,-46.4407"/>
</g>
<!-- Log -->
<g id="node18" class="node"><title>Log</title>
<ellipse fill="none" stroke="black" cx="1073.08" cy="-576" rx="27" ry="18"/>
<text text-anchor="middle" x="1073.08" y="-571.8" font-family="Times,serif" font-size="14.00">Log</text>
</g>
<!-- Participante&#45;&gt;Actividad -->
<g id="edge35" class="edge"><title>Participante&#45;&gt;Actividad</title>
<path fill="none" stroke="#cc1cd6" d="M1091.04,-159.464C1121.26,-145.12 1163.8,-124.932 1194.05,-110.577"/>
<ellipse fill="none" stroke="#cc1cd6" cx="1087.32" cy="-161.225" rx="4.00002" ry="4.00002"/>
<polygon fill="#cc1cd6" stroke="#cc1cd6" points="1194.37,-110.424 1205.33,-110.202 1198.89,-108.28 1203.4,-106.136 1203.4,-106.136 1203.4,-106.136 1198.89,-108.28 1201.47,-102.071 1194.37,-110.424 1194.37,-110.424"/>
</g>
<!-- Privilegio -->
<g id="node20" class="node"><title>Privilegio</title>
<ellipse fill="none" stroke="black" cx="1399.08" cy="-414" rx="44.4828" ry="18"/>
<text text-anchor="middle" x="1399.08" y="-409.8" font-family="Times,serif" font-size="14.00">Privilegio</text>
</g>
<!-- Privilegio&#45;&gt;ControlAcceso -->
<g id="edge37" class="edge"><title>Privilegio&#45;&gt;ControlAcceso</title>
<path fill="none" stroke="#832dc6" d="M1389.89,-388.651C1373.11,-347.292 1333.78,-263.041 1275.08,-214 1265.33,-205.848 1253.44,-199.427 1241.59,-194.436"/>
<ellipse fill="none" stroke="#832dc6" cx="1391.37" cy="-392.376" rx="4.00001" ry="4.00001"/>
<polygon fill="#832dc6" stroke="#832dc6" points="1241.45,-194.381 1233.78,-186.543 1236.79,-192.557 1232.14,-190.733 1232.14,-190.733 1232.14,-190.733 1236.79,-192.557 1230.5,-194.923 1241.45,-194.381 1241.45,-194.381"/>
</g>
<!-- Proceso&#45;&gt;Actividad -->
<g id="edge42" class="edge"><title>Proceso&#45;&gt;Actividad</title>
<path fill="none" stroke="#6829f2" d="M692.869,-230.11C724.286,-201.425 785.452,-150.807 848.084,-128 906.985,-106.552 1085.52,-97.7376 1176.51,-94.5628"/>
<ellipse fill="none" stroke="#6829f2" cx="689.928" cy="-232.826" rx="4.00002" ry="4.00002"/>
<polygon fill="#6829f2" stroke="#6829f2" points="1176.63,-94.5587 1186.78,-98.7179 1181.63,-94.3896 1186.63,-94.2204 1186.63,-94.2204 1186.63,-94.2204 1181.63,-94.3896 1186.48,-89.723 1176.63,-94.5587 1176.63,-94.5587"/>
</g>
<!-- Proceso&#45;&gt;Alerta -->
<g id="edge43" class="edge"><title>Proceso&#45;&gt;Alerta</title>
<path fill="none" stroke="#2c2b57" d="M646.399,-230.803C634.492,-221.061 620.231,-209.393 608.26,-199.599"/>
<ellipse fill="none" stroke="#2c2b57" cx="649.754" cy="-233.549" rx="4.00002" ry="4.00002"/>
<polygon fill="#2c2b57" stroke="#2c2b57" points="608.135,-199.497 603.245,-189.682 604.266,-196.331 600.396,-193.164 600.396,-193.164 600.396,-193.164 604.266,-196.331 597.546,-196.647 608.135,-199.497 608.135,-199.497"/>
</g>
<!-- Proceso&#45;&gt;Contrato -->
<g id="edge41" class="edge"><title>Proceso&#45;&gt;Contrato</title>
<path fill="none" stroke="#168fc0" d="M634.971,-236.635C604.216,-224.401 560.14,-206.868 528.691,-194.358"/>
<ellipse fill="none" stroke="#168fc0" cx="639.086" cy="-238.271" rx="4.00001" ry="4.00001"/>
<polygon fill="#168fc0" stroke="#168fc0" points="528.657,-194.344 521.029,-186.467 524.011,-192.496 519.366,-190.648 519.366,-190.648 519.366,-190.648 524.011,-192.496 517.702,-194.829 528.657,-194.344 528.657,-194.344"/>
</g>
<!-- Proceso&#45;&gt;ControlAcceso -->
<g id="edge39" class="edge"><title>Proceso&#45;&gt;ControlAcceso</title>
<path fill="none" stroke="#9120e6" d="M716.57,-247.011C797.244,-239.571 970.507,-221.944 1115.08,-196 1120.46,-195.036 1126.03,-193.923 1131.59,-192.738"/>
<ellipse fill="none" stroke="#9120e6" cx="712.11" cy="-247.419" rx="4" ry="4"/>
<polygon fill="#9120e6" stroke="#9120e6" points="1131.77,-192.699 1142.5,-194.937 1136.65,-191.621 1141.53,-190.543 1141.53,-190.543 1141.53,-190.543 1136.65,-191.621 1140.56,-186.149 1131.77,-192.699 1131.77,-192.699"/>
</g>
<!-- Proceso&#45;&gt;Document -->
<g id="edge44" class="edge"><title>Proceso&#45;&gt;Document</title>
<path fill="none" stroke="#1550ed" d="M711.067,-240.178C759.115,-227.172 839.603,-205.386 890.439,-191.626"/>
<ellipse fill="none" stroke="#1550ed" cx="707.03" cy="-241.27" rx="4.00001" ry="4.00001"/>
<polygon fill="#1550ed" stroke="#1550ed" points="890.54,-191.598 901.368,-193.329 895.366,-190.292 900.192,-188.986 900.192,-188.986 900.192,-188.986 895.366,-190.292 899.017,-184.642 890.54,-191.598 890.54,-191.598"/>
</g>
<!-- Proceso&#45;&gt;Estado -->
<g id="edge45" class="edge"><title>Proceso&#45;&gt;Estado</title>
<path fill="none" stroke="#2169c0" d="M629.879,-241.491C569.937,-227.659 459.36,-202.141 399.733,-188.381"/>
<ellipse fill="none" stroke="#2169c0" cx="633.797" cy="-242.395" rx="4.00001" ry="4.00001"/>
<polygon fill="#2169c0" stroke="#2169c0" points="399.66,-188.364 390.928,-181.73 394.788,-187.239 389.916,-186.115 389.916,-186.115 389.916,-186.115 394.788,-187.239 388.904,-190.5 399.66,-188.364 399.66,-188.364"/>
</g>
<!-- Proceso&#45;&gt;Participante -->
<g id="edge40" class="edge"><title>Proceso&#45;&gt;Participante</title>
<path fill="none" stroke="#d4bce2" d="M713.808,-242.776C754.647,-235.01 817.979,-223.212 873.084,-214 925.842,-205.18 939.756,-207.091 992.084,-196 996.502,-195.063 1001.07,-193.998 1005.64,-192.868"/>
<ellipse fill="none" stroke="#d4bce2" cx="709.627" cy="-243.573" rx="4.00001" ry="4.00001"/>
<polygon fill="#d4bce2" stroke="#d4bce2" points="1005.87,-192.807 1016.68,-194.674 1010.72,-191.562 1015.56,-190.316 1015.56,-190.316 1015.56,-190.316 1010.72,-191.562 1014.44,-185.958 1005.87,-192.807 1005.87,-192.807"/>
</g>
<!-- ProcesoParticipante -->
<g id="node22" class="node"><title>ProcesoParticipante</title>
<ellipse fill="none" stroke="black" cx="1312.08" cy="-576" rx="80.0117" ry="18"/>
<text text-anchor="middle" x="1312.08" y="-571.8" font-family="Times,serif" font-size="14.00">ProcesoParticipante</text>
</g>
<!-- RolParticipante -->
<g id="node23" class="node"><title>RolParticipante</title>
<ellipse fill="none" stroke="black" cx="1194.08" cy="-306" rx="65.1792" ry="18"/>
<text text-anchor="middle" x="1194.08" y="-301.8" font-family="Times,serif" font-size="14.00">RolParticipante</text>
</g>
<!-- RolParticipante&#45;&gt;Participante -->
<g id="edge48" class="edge"><title>RolParticipante&#45;&gt;Participante</title>
<path fill="none" stroke="#f3491a" d="M1173.37,-282.272C1155.52,-263.196 1128.66,-235.668 1103.08,-214 1097.62,-209.369 1091.57,-204.709 1085.63,-200.368"/>
<ellipse fill="none" stroke="#f3491a" cx="1176.33" cy="-285.467" rx="4.00002" ry="4.00002"/>
<polygon fill="#f3491a" stroke="#f3491a" points="1085.25,-200.092 1079.73,-190.615 1081.18,-197.184 1077.11,-194.276 1077.11,-194.276 1077.11,-194.276 1081.18,-197.184 1074.5,-197.937 1085.25,-200.092 1085.25,-200.092"/>
</g>
<!-- RolesParticipantes -->
<g id="node24" class="node"><title>RolesParticipantes</title>
<ellipse fill="none" stroke="black" cx="1524.08" cy="-576" rx="75.3919" ry="18"/>
<text text-anchor="middle" x="1524.08" y="-571.8" font-family="Times,serif" font-size="14.00">RolesParticipantes</text>
</g>
<!-- SoftwareAbogado -->
<g id="node25" class="node"><title>SoftwareAbogado</title>
<ellipse fill="none" stroke="black" cx="1692.08" cy="-576" rx="74.1764" ry="18"/>
<text text-anchor="middle" x="1692.08" y="-571.8" font-family="Times,serif" font-size="14.00">SoftwareAbogado</text>
</g>
<!-- TipoProceso -->
<g id="node26" class="node"><title>TipoProceso</title>
<ellipse fill="none" stroke="black" cx="652.084" cy="-468" rx="54.2518" ry="18"/>
<text text-anchor="middle" x="652.084" y="-463.8" font-family="Times,serif" font-size="14.00">TipoProceso</text>
</g>
<!-- TipoProceso&#45;&gt;Proceso -->
<g id="edge52" class="edge"><title>TipoProceso&#45;&gt;Proceso</title>
<path fill="none" stroke="#521752" d="M653.954,-441.804C656.583,-407.135 661.659,-342.786 667.084,-288 667.337,-285.444 667.614,-282.784 667.902,-280.124"/>
<ellipse fill="none" stroke="#521752" cx="653.64" cy="-445.966" rx="4" ry="4"/>
<polygon fill="#521752" stroke="#521752" points="667.914,-280.017 673.499,-270.58 668.471,-275.048 669.027,-270.079 669.027,-270.079 669.027,-270.079 668.471,-275.048 664.555,-269.578 667.914,-280.017 667.914,-280.017"/>
</g>
<!-- User -->
<g id="node27" class="node"><title>User</title>
<ellipse fill="none" stroke="black" cx="1849.08" cy="-576" rx="27" ry="18"/>
<text text-anchor="middle" x="1849.08" y="-571.8" font-family="Times,serif" font-size="14.00">User</text>
</g>
<!-- Usuario&#45;&gt;Actividad -->
<g id="edge62" class="edge"><title>Usuario&#45;&gt;Actividad</title>
<path fill="none" stroke="#eaa73b" d="M823.884,-332.504C824.99,-329.643 826.076,-326.767 827.084,-324 853.346,-251.896 823.438,-210.653 881.084,-160 924.403,-121.935 1090.23,-103.779 1177.17,-96.722"/>
<polygon fill="#eaa73b" stroke="#eaa73b" points="823.809,-332.692 815.949,-340.338 821.972,-337.342 820.134,-341.992 820.134,-341.992 820.134,-341.992 821.972,-337.342 824.319,-343.646 823.809,-332.692 823.809,-332.692"/>
<polygon fill="#eaa73b" stroke="#eaa73b" points="1177.4,-96.7039 1187.73,-100.402 1182.39,-96.3099 1187.37,-95.9158 1187.37,-95.9158 1187.37,-95.9158 1182.39,-96.3099 1187.02,-91.4297 1177.4,-96.7039 1177.4,-96.7039"/>
</g>
<!-- Usuario&#45;&gt;Alerta -->
<g id="edge61" class="edge"><title>Usuario&#45;&gt;Alerta</title>
<path fill="none" stroke="#1a0cb5" d="M784.499,-338.205C779.39,-333.822 774.345,-329 770.084,-324 740.12,-288.839 752.909,-264.353 718.084,-234 690.692,-210.127 651.563,-195.732 622.477,-187.693"/>
<polygon fill="#1a0cb5" stroke="#1a0cb5" points="784.718,-338.383 789.635,-348.185 788.596,-341.539 792.475,-344.694 792.475,-344.694 792.475,-344.694 788.596,-341.539 795.315,-341.203 784.718,-338.383 784.718,-338.383"/>
<polygon fill="#1a0cb5" stroke="#1a0cb5" points="622.316,-187.65 613.787,-180.757 617.48,-186.38 612.644,-185.109 612.644,-185.109 612.644,-185.109 617.48,-186.38 611.5,-189.462 622.316,-187.65 622.316,-187.65"/>
</g>
<!-- Usuario&#45;&gt;ControlAcceso -->
<g id="edge55" class="edge"><title>Usuario&#45;&gt;ControlAcceso</title>
<path fill="none" stroke="#ed882d" d="M855.384,-349.994C880.034,-344.053 911.418,-335.279 938.084,-324 1020.97,-288.94 1110.33,-231.547 1156.13,-200.525"/>
<ellipse fill="none" stroke="#ed882d" cx="851.192" cy="-350.983" rx="4.00001" ry="4.00001"/>
<polygon fill="#ed882d" stroke="#ed882d" points="1156.17,-200.5 1166.97,-198.587 1160.3,-197.684 1164.43,-194.868 1164.43,-194.868 1164.43,-194.868 1160.3,-197.684 1161.9,-191.15 1156.17,-200.5 1156.17,-200.5"/>
</g>
<!-- Usuario&#45;&gt;Document -->
<g id="edge57" class="edge"><title>Usuario&#45;&gt;Document</title>
<path fill="none" stroke="#52531e" d="M848.619,-344.113C858.133,-338.838 867.789,-332.144 875.084,-324 891.447,-305.732 915.272,-242.018 928.101,-205.413"/>
<ellipse fill="none" stroke="#52531e" cx="844.959" cy="-346.021" rx="4.00002" ry="4.00002"/>
<polygon fill="#52531e" stroke="#52531e" points="928.135,-205.316 935.664,-197.343 929.774,-200.592 931.413,-195.868 931.413,-195.868 931.413,-195.868 929.774,-200.592 927.162,-194.393 928.135,-205.316 928.135,-205.316"/>
</g>
<!-- Usuario&#45;&gt;Evento -->
<g id="edge59" class="edge"><title>Usuario&#45;&gt;Evento</title>
<path fill="none" stroke="#b3b694" d="M800.827,-333.144C785.475,-301.405 759.448,-249.838 745.084,-234 693.78,-177.433 615.385,-132.299 570.935,-109.411"/>
<polygon fill="#b3b694" stroke="#b3b694" points="800.893,-333.283 801.168,-344.245 803.058,-337.79 805.224,-342.297 805.224,-342.297 805.224,-342.297 803.058,-337.79 809.28,-340.348 800.893,-333.283 800.893,-333.283"/>
<polygon fill="#b3b694" stroke="#b3b694" points="570.904,-109.396 564.024,-100.856 566.446,-107.132 561.987,-104.869 561.987,-104.869 561.987,-104.869 566.446,-107.132 559.95,-108.881 570.904,-109.396 570.904,-109.396"/>
</g>
<!-- Usuario&#45;&gt;Participante -->
<g id="edge63" class="edge"><title>Usuario&#45;&gt;Participante</title>
<path fill="none" stroke="#edd5ef" d="M853.869,-346.177C868.995,-340.516 885.906,-333.065 900.084,-324 954.045,-289.497 1005.96,-234.702 1033.57,-203.281"/>
<polygon fill="#edd5ef" stroke="#edd5ef" points="853.644,-346.258 842.712,-345.404 848.938,-347.949 844.233,-349.639 844.233,-349.639 844.233,-349.639 848.938,-347.949 845.754,-353.874 853.644,-346.258 853.644,-346.258"/>
<polygon fill="#edd5ef" stroke="#edd5ef" points="1033.82,-202.998 1043.77,-198.4 1037.1,-199.224 1040.38,-195.449 1040.38,-195.449 1040.38,-195.449 1037.1,-199.224 1036.98,-192.498 1033.82,-202.998 1033.82,-202.998"/>
</g>
<!-- Usuario&#45;&gt;Proceso -->
<g id="edge56" class="edge"><title>Usuario&#45;&gt;Proceso</title>
<path fill="none" stroke="#81f0e1" d="M775.89,-343.51C765.346,-338.18 754.252,-331.606 745.084,-324 729.484,-311.058 731.492,-302.257 717.084,-288 712.003,-282.973 706.19,-278.035 700.444,-273.524"/>
<polygon fill="#81f0e1" stroke="#81f0e1" points="775.94,-343.535 783.001,-351.925 780.446,-345.702 784.952,-347.87 784.952,-347.87 784.952,-347.87 780.446,-345.702 786.902,-343.814 775.94,-343.535 775.94,-343.535"/>
<polygon fill="#81f0e1" stroke="#81f0e1" points="700.141,-273.296 694.882,-263.673 696.154,-270.279 692.167,-267.262 692.167,-267.262 692.167,-267.262 696.154,-270.279 689.452,-270.85 700.141,-273.296 700.141,-273.296"/>
</g>
<!-- Usuario&#45;&gt;Usuario -->
<g id="edge60" class="edge"><title>Usuario&#45;&gt;Usuario</title>
<path fill="none" stroke="#6894c4" d="M853.007,-369.911C862.269,-369.071 869.084,-365.768 869.084,-360 869.084,-354.636 863.189,-351.403 854.914,-350.302"/>
<ellipse fill="none" stroke="#6894c4" cx="848.746" cy="-369.975" rx="4" ry="4"/>
<polygon fill="#6894c4" stroke="#6894c4" points="854.741,-350.296 844.896,-345.466 849.744,-350.13 844.747,-349.964 844.747,-349.964 844.747,-349.964 849.744,-350.13 844.597,-354.462 854.741,-350.296 854.741,-350.296"/>
<text text-anchor="middle" x="895.522" y="-355.8" font-family="Times,serif" font-size="14.00">abogados</text>
</g>
<!-- Usuario&#45;&gt;UsuarioEvento -->
<g id="edge58" class="edge"><title>Usuario&#45;&gt;UsuarioEvento</title>
<path fill="none" stroke="#095b9d" d="M809.914,-333.913C807.731,-320.112 804.271,-302.829 799.084,-288 790.157,-262.482 787.125,-255.761 771.084,-234 710.865,-152.31 616.364,-77.0055 567.943,-41.0903"/>
<ellipse fill="none" stroke="#095b9d" cx="810.526" cy="-338.046" rx="4.00001" ry="4.00001"/>
<polygon fill="#095b9d" stroke="#095b9d" points="567.792,-40.9796 562.403,-31.4292 563.765,-38.0169 559.737,-35.0542 559.737,-35.0542 559.737,-35.0542 563.765,-38.0169 557.071,-38.6792 567.792,-40.9796 567.792,-40.9796"/>
</g>
<!-- ActiveRecord::Base -->
<g id="node30" class="node"><title>ActiveRecord::Base</title>
<ellipse fill="none" stroke="black" cx="961.084" cy="-669" rx="80.9821" ry="18"/>
<text text-anchor="middle" x="961.084" y="-664.8" font-family="Times,serif" font-size="14.00">ActiveRecord::Base</text>
</g>
<!-- ActiveRecord::Base&#45;&gt;Abogado -->
<g id="edge10" class="edge"><title>ActiveRecord::Base&#45;&gt;Abogado</title>
<path fill="none" stroke="black" d="M943.109,-651.309C925.095,-634.582 897.578,-609.03 879.962,-592.673"/>
</g>
<!-- ActiveRecord::Base&#45;&gt;Actividad -->
<g id="edge11" class="edge"><title>ActiveRecord::Base&#45;&gt;Actividad</title>
<path fill="none" stroke="black" d="M1042.09,-667.537C1251.42,-665.271 1794.08,-652.149 1794.08,-577 1794.08,-577 1794.08,-577 1794.08,-177 1794.08,-124.623 1407.98,-101.389 1275.26,-94.9495"/>
</g>
<!-- ActiveRecord::Base&#45;&gt;ActividadEvento -->
<g id="edge12" class="edge"><title>ActiveRecord::Base&#45;&gt;ActividadEvento</title>
<path fill="none" stroke="black" d="M929.487,-652.388C912.351,-644.728 890.544,-636.251 870.084,-632 751.44,-607.349 445.335,-628.947 325.084,-614 282.82,-608.747 235.541,-598.056 201.593,-589.511"/>
</g>
<!-- ActiveRecord::Base&#45;&gt;Agenda -->
<g id="edge13" class="edge"><title>ActiveRecord::Base&#45;&gt;Agenda</title>
<path fill="none" stroke="black" d="M929.486,-652.392C912.35,-644.733 890.543,-636.256 870.084,-632 753.186,-607.681 446.197,-652.235 333.084,-614 319.858,-609.529 307.055,-600.496 297.461,-592.475"/>
</g>
<!-- ActiveRecord::Base&#45;&gt;Alerta -->
<g id="edge15" class="edge"><title>ActiveRecord::Base&#45;&gt;Alerta</title>
<path fill="none" stroke="black" d="M926.633,-652.53C909.842,-645.468 889.192,-637.478 870.084,-632 827.514,-619.797 814.216,-627.637 772.084,-614 752.413,-607.633 747.545,-605.071 730.084,-594 708.744,-580.47 709.416,-567.696 686.084,-558 649.778,-542.914 536.431,-569.18 510.084,-540 417.523,-437.49 533.128,-250.965 571.515,-195.178"/>
</g>
<!-- ActiveRecord::Base&#45;&gt;Brand -->
<g id="edge16" class="edge"><title>ActiveRecord::Base&#45;&gt;Brand</title>
<path fill="none" stroke="black" d="M928.566,-652.383C911.54,-644.92 890.115,-636.625 870.084,-632 768.882,-608.634 740.518,-623.437 637.084,-614 552.524,-606.285 529.284,-615.285 447.084,-594 441.532,-592.562 435.751,-590.48 430.367,-588.263"/>
</g>
<!-- ActiveRecord::Base&#45;&gt;Cliente -->
<g id="edge17" class="edge"><title>ActiveRecord::Base&#45;&gt;Cliente</title>
<path fill="none" stroke="black" d="M928.554,-652.437C911.524,-644.988 890.1,-636.689 870.084,-632 776.721,-610.128 750.217,-626.023 655.084,-614 602.311,-607.331 588.425,-607.908 537.084,-594 531.119,-592.384 524.842,-590.282 518.932,-588.11"/>
</g>
<!-- ActiveRecord::Base&#45;&gt;Contrato -->
<g id="edge18" class="edge"><title>ActiveRecord::Base&#45;&gt;Contrato</title>
<path fill="none" stroke="black" d="M928.581,-652.317C911.559,-644.836 890.133,-636.545 870.084,-632 815.314,-619.585 406.003,-633.5 366.084,-594 249.025,-478.17 422.993,-256.81 475.726,-195.242"/>
</g>
<!-- ActiveRecord::Base&#45;&gt;ControlAcceso -->
<g id="edge19" class="edge"><title>ActiveRecord::Base&#45;&gt;ControlAcceso</title>
<path fill="none" stroke="black" d="M1039.34,-664.017C1082.18,-658.152 1133.76,-644.615 1170.08,-614 1227.55,-565.562 1281.94,-359.907 1260.08,-288 1248.89,-251.173 1220.66,-215.466 1202.77,-195.45"/>
</g>
<!-- ActiveRecord::Base&#45;&gt;Document -->
<g id="edge20" class="edge"><title>ActiveRecord::Base&#45;&gt;Document</title>
<path fill="none" stroke="black" d="M968.49,-650.66C972.451,-639.754 976.45,-625.281 976.084,-612 971.193,-434.909 998.546,-385.489 954.084,-214 952.49,-207.853 949.775,-201.502 946.976,-195.924"/>
</g>
<!-- ActiveRecord::Base&#45;&gt;Estado -->
<g id="edge21" class="edge"><title>ActiveRecord::Base&#45;&gt;Estado</title>
<path fill="none" stroke="black" d="M929.488,-652.38C912.353,-644.717 890.546,-636.241 870.084,-632 783.598,-614.075 135.795,-659.081 76.0836,-594 38.3259,-552.847 81.653,-579.012 266.084,-324 298.682,-278.927 333.005,-222.806 349.338,-195.485"/>
</g>
<!-- ActiveRecord::Base&#45;&gt;EstadoActividad -->
<g id="edge23" class="edge"><title>ActiveRecord::Base&#45;&gt;EstadoActividad</title>
<path fill="none" stroke="black" d="M1040.89,-665.599C1225.06,-659.638 1675.37,-642.549 1824.08,-614 1852.1,-608.621 1868.34,-617.104 1885.08,-594 1896.35,-578.453 1891.41,-555.704 1885.75,-540.174"/>
</g>
<!-- ActiveRecord::Base&#45;&gt;EstadoProceso -->
<g id="edge25" class="edge"><title>ActiveRecord::Base&#45;&gt;EstadoProceso</title>
<path fill="none" stroke="black" d="M926.605,-652.628C909.807,-645.588 889.16,-637.588 870.084,-632 830.1,-620.287 814.08,-634.98 778.084,-614 749.762,-597.494 758.091,-575.034 730.084,-558 729.516,-557.655 671.455,-544.069 627.989,-533.929"/>
</g>
<!-- ActiveRecord::Base&#45;&gt;Event -->
<g id="edge28" class="edge"><title>ActiveRecord::Base&#45;&gt;Event</title>
<path fill="none" stroke="black" d="M928.084,-652.447C911.111,-645.096 889.879,-636.88 870.084,-632 797.173,-614.024 767.572,-650.748 702.084,-614 674.718,-598.644 686.554,-573.167 659.084,-558 583.666,-516.359 541.631,-581.406 466.084,-540 448.309,-530.258 452.173,-518.572 438.084,-504 430.826,-496.494 422.051,-488.976 414.403,-482.843"/>
</g>
<!-- ActiveRecord::Base&#45;&gt;EventSeries -->
<g id="edge30" class="edge"><title>ActiveRecord::Base&#45;&gt;EventSeries</title>
<path fill="none" stroke="black" d="M928.547,-652.467C911.515,-645.026 890.091,-636.725 870.084,-632 780.64,-610.875 751.909,-641.076 664.084,-614 648.392,-609.162 632.289,-600.228 619.917,-592.35"/>
</g>
<!-- ActiveRecord::Base&#45;&gt;Evento -->
<g id="edge33" class="edge"><title>ActiveRecord::Base&#45;&gt;Evento</title>
<path fill="none" stroke="black" d="M929.502,-652.312C912.371,-644.63 890.564,-636.157 870.084,-632 705.394,-598.572 279.131,-645.614 114.084,-614 88.9474,-609.185 74.7041,-615.006 60.0836,-594 -27.8586,-467.649 -72.2852,-446.692 316.084,-160 373.015,-117.973 456.495,-102.049 502.853,-96.2121"/>
</g>
<!-- ActiveRecord::Base&#45;&gt;Log -->
<g id="edge34" class="edge"><title>ActiveRecord::Base&#45;&gt;Log</title>
<path fill="none" stroke="black" d="M983.523,-651.685C997.683,-641.207 1016.23,-627.146 1032.08,-614 1040.94,-606.657 1050.5,-598.068 1058.16,-591.015"/>
</g>
<!-- ActiveRecord::Base&#45;&gt;Participante -->
<g id="edge36" class="edge"><title>ActiveRecord::Base&#45;&gt;Participante</title>
<path fill="none" stroke="black" d="M1016.47,-655.793C1049.54,-645.345 1088.92,-626.623 1109.08,-594 1191.81,-460.151 1095.27,-255.881 1063.52,-196.032"/>
</g>
<!-- ActiveRecord::Base&#45;&gt;Privilegio -->
<g id="edge38" class="edge"><title>ActiveRecord::Base&#45;&gt;Privilegio</title>
<path fill="none" stroke="black" d="M1041.54,-666.415C1155.71,-662.271 1355.94,-647.375 1401.08,-594 1440.52,-547.374 1418.24,-466.864 1405.75,-431.958"/>
</g>
<!-- ActiveRecord::Base&#45;&gt;Proceso -->
<g id="edge46" class="edge"><title>ActiveRecord::Base&#45;&gt;Proceso</title>
<path fill="none" stroke="black" d="M962.052,-650.791C962.439,-639.686 962.505,-624.95 961.084,-612 958.401,-587.561 958.362,-580.768 949.084,-558 927.767,-505.69 922.021,-489.947 882.084,-450 839.182,-407.088 812.086,-417.569 766.084,-378 742.182,-357.441 739.284,-349.006 720.084,-324 706.128,-305.825 691.351,-284.014 681.72,-269.405"/>
</g>
<!-- ActiveRecord::Base&#45;&gt;ProcesoParticipante -->
<g id="edge47" class="edge"><title>ActiveRecord::Base&#45;&gt;ProcesoParticipante</title>
<path fill="none" stroke="black" d="M1024.67,-657.708C1077.14,-648.487 1153.23,-633.428 1218.08,-614 1238.08,-608.011 1259.79,-599.595 1277.31,-592.302"/>
</g>
<!-- ActiveRecord::Base&#45;&gt;RolParticipante -->
<g id="edge49" class="edge"><title>ActiveRecord::Base&#45;&gt;RolParticipante</title>
<path fill="none" stroke="black" d="M1039.17,-663.927C1097.1,-656.184 1166.08,-634.825 1166.08,-577 1166.08,-577 1166.08,-577 1166.08,-413 1166.08,-380.642 1178.43,-344.516 1186.73,-323.895"/>
</g>
<!-- ActiveRecord::Base&#45;&gt;RolesParticipantes -->
<g id="edge50" class="edge"><title>ActiveRecord::Base&#45;&gt;RolesParticipantes</title>
<path fill="none" stroke="black" d="M1040.97,-665.59C1136,-661.193 1298.81,-648.809 1434.08,-614 1454.21,-608.822 1475.77,-600.078 1492.74,-592.39"/>
</g>
<!-- ActiveRecord::Base&#45;&gt;SoftwareAbogado -->
<g id="edge51" class="edge"><title>ActiveRecord::Base&#45;&gt;SoftwareAbogado</title>
<path fill="none" stroke="black" d="M1035.64,-661.881C1156.39,-651.431 1401.98,-627.936 1608.08,-594 1617.92,-592.38 1628.36,-590.444 1638.42,-588.468"/>
</g>
<!-- ActiveRecord::Base&#45;&gt;TipoProceso -->
<g id="edge53" class="edge"><title>ActiveRecord::Base&#45;&gt;TipoProceso</title>
<path fill="none" stroke="black" d="M926.421,-652.563C895.554,-638.428 849.473,-616.363 811.084,-594 786.478,-579.667 782.728,-572.265 758.084,-558 742.257,-548.839 735.901,-550.718 721.084,-540 699.219,-524.184 678.221,-501.063 665.25,-485.546"/>
</g>
<!-- ActiveRecord::Base&#45;&gt;User -->
<g id="edge54" class="edge"><title>ActiveRecord::Base&#45;&gt;User</title>
<path fill="none" stroke="black" d="M1041.34,-665.886C1239.05,-660.252 1738.62,-643.278 1808.08,-614 1819.22,-609.308 1829.32,-600.271 1836.72,-592.303"/>
</g>
<!-- ActiveRecord::Base&#45;&gt;Usuario -->
<g id="edge64" class="edge"><title>ActiveRecord::Base&#45;&gt;Usuario</title>
<path fill="none" stroke="black" d="M956.828,-650.826C947.035,-612.974 920.741,-520.164 882.084,-450 866.705,-422.088 842.937,-393.638 827.697,-376.652"/>
</g>
<!-- ActiveRecord::Base&#45;&gt;UsuarioEvento -->
<g id="edge65" class="edge"><title>ActiveRecord::Base&#45;&gt;UsuarioEvento</title>
<path fill="none" stroke="black" d="M1041.16,-665.653C1228.87,-659.74 1692.98,-642.629 1846.08,-614 1899.28,-604.054 1962.08,-631.115 1962.08,-577 1962.08,-577 1962.08,-577 1962.08,-91 1962.08,-21.7956 875.933,-18.5494 600.153,-18.8405"/>
</g>
</g>
</svg>
